<svg width="123" height="123" viewBox="0 0 123 123" fill="none" xmlns="http://www.w3.org/2000/svg">
<g clip-path="url(#clip0)">
<path d="M61.6 77.2C61.6 76.3 61.5 75.5 61.4 74.5L59.4 63L28.7 93.8C28.7 93.7 28.8 93.6 28.8 93.6L60 62.4L47 61.4C46.6 61.4 46.2 61.3 45.8 61.3H39.9L27.9 61H17.9C9.1 61 2 68.1 2 76.9V104.5C2 113.3 9.1 120.4 17.9 120.4H45.5C54.3 120.4 61.4 113.3 61.4 104.5V83.1L61.7 77.5L61.6 77.2Z" fill="#575757"/>
<path d="M2.00001 91.5C2.00001 104.792 1.5 117 13 120L31 121" stroke="#29282D" stroke-width="4"/>
<path d="M31 120.3H45.4C54.2 120.3 61.3 113.2 61.3 104.4V83L61.6 77.4V77.1C61.6 76.2 61.5 75.4 61.4 74.4L59.4 63L28.7 93.8C28.7 93.7 28.8 93.6 28.8 93.6L60 62.4L47 61.4C46.6 61.4 46.2 61.3 45.8 61.3H39.9L27.9 61H17.9C9.1 61 2 68.1 2 76.9V90.9" stroke="#29282D" stroke-width="4" stroke-miterlimit="10" stroke-linecap="round"/>
<path d="M104.2 2H50.4C41.2 2 33.7 9.5 33.7 18.7V61.4H45.7C48.3 61.4 50.8 62 53.1 63.2L57 65.3L89.7 32.6L89.8 32.7L57.1 65.3L59.3 69.3C60.6 71.6 61.3 74.2 61.3 76.9V89.1H103.7C113 89.1 120.4 81.8 120.4 72.5L120.9 18.6C120.9 9.3 113.5 2 104.2 2Z" fill="#7A13CC"/>
<path d="M62.6 2H50.4C41.2 2 33.7 9.5 33.7 18.7V61.4H45.7C48.3 61.4 50.8 62 53.1 63.2L57 65.3L89.7 32.6L89.8 32.7L57.1 65.3L59.3 69.3C60.6 71.6 61.3 74.2 61.3 76.9V89.1H103.7C113 89.1 120.4 81.8 120.4 72.5L120.5 60.1" stroke="#29282D" stroke-width="4" stroke-miterlimit="10" stroke-linecap="round"/>
<path d="M120.648 63L121 23.537C121 11.5433 112.444 2 101.427 2H59" stroke="#29282D" stroke-width="4" stroke-miterlimit="10" stroke-linecap="round"/>
<path d="M83.9 51.9C83.9 55 86.8 57.9 89.9 57.9C93 57.9 95.9 55 95.9 51.9V32.4C95.9 31.9 95.9 31.1 94.9 29.5C94.9 28.7 94.6 28.5 93.9 27.7C93.4 27.4 92.9 26.9 92.1 26.7C91.3 26.4 90.8 26.4 90 26.4H70.4C67.3 26.4 64.4 29.3 64.4 32.4C64.4 35.5 67.3 38.4 70.4 38.4H75.3L55.9 57.9L46.4 67.4L24.1 89.6C22 92.2 22 96.1 24.1 98.2C26.7 100.3 30.6 100.3 32.7 98.2L55.4 75.5L64.5 66.4L83.9 47V51.9Z" fill="white" stroke="#29282D" stroke-width="4" stroke-miterlimit="10" stroke-linecap="round" stroke-dasharray="90 6"/>
</g>
<defs>
<clipPath id="clip0">
<rect width="122.9" height="122.3" fill="white"/>
</clipPath>
</defs>
</svg>
