<svg width="102" height="105" viewBox="0 0 102 105" fill="none" xmlns="http://www.w3.org/2000/svg">
<g clip-path="url(#clip0)">
<path d="M25.1354 103.283H76.7788C84.328 103.283 90.5046 97.1013 90.5046 89.5462V15.4538C90.5046 7.89856 84.328 1.71704 76.7788 1.71704H39.1186C35.9445 1.71704 32.8562 3.00486 30.6257 5.23707L14.6695 21.5494C12.5248 23.7816 11.3238 26.7007 11.3238 29.7914V89.5462C11.4096 97.1872 17.5862 103.283 25.1354 103.283Z" fill="#7A13CC" stroke="#29282D" stroke-width="4" stroke-miterlimit="10" stroke-linecap="round"/>
<path d="M37.4029 6.09559V18.2869C37.4029 23.7816 32.942 28.3319 27.3659 28.3319H15.6989C13.1253 28.3319 11.8385 25.2411 13.64 23.4382L32.513 4.12094C34.3146 2.23214 37.4029 3.51996 37.4029 6.09559Z" fill="#575757" stroke="#29282D" stroke-width="4" stroke-miterlimit="10" stroke-linecap="round" stroke-dasharray="203.36 25.11"/>
<path d="M48.5551 68.3401C49.2414 68.9411 50.0992 69.1987 50.9571 69.1987C51.815 69.1987 52.6728 68.9411 53.3591 68.3401L67.1707 56.4063C68.2002 55.3761 68.7149 54.0024 68.6291 52.6288C68.5433 51.2551 67.857 49.8814 66.8276 49.0229C64.8545 47.3916 61.852 47.6492 59.9647 49.4521L56.1043 53.2297V33.8266C56.1043 32.453 55.5038 31.0793 54.4743 30.1349C53.4449 29.1905 52.1581 28.6754 50.6997 28.7612C47.9546 28.9329 45.8099 31.251 45.8099 34.0842V53.2297L42.0353 49.3663C40.148 47.4775 37.1455 47.3058 35.1724 48.937C34.0572 49.7956 33.3709 51.1692 33.3709 52.5429C33.2851 53.9166 33.7998 55.3761 34.9151 56.4063L48.5551 68.3401ZM69.8301 79.7588H32.1699C29.3389 79.7588 27.0227 82.0768 27.0227 84.91C27.0227 87.8291 29.2532 90.0613 32.1699 90.0613H69.8301C72.6611 90.0613 74.9773 87.7432 74.9773 84.91C74.8915 81.991 72.7468 79.7588 69.8301 79.7588Z" fill="#DCDCDC" stroke="#29282D" stroke-width="4" stroke-miterlimit="10" stroke-linecap="round"/>
</g>
<defs>
<clipPath id="clip0">
<rect width="102" height="105" fill="white"/>
</clipPath>
</defs>
</svg>
