<svg width="170" height="131" viewBox="0 0 170 131" fill="none" xmlns="http://www.w3.org/2000/svg">
<path d="M18.0011 36.3228L38.2511 48.0142L18.0011 59.7055L18.0011 36.3228Z" fill="#C782FF"/>
<path d="M38.2184 71.3228L17.9684 59.6315L38.2184 47.9402L38.2184 71.3228Z" fill="#AB41FF"/>
<path d="M18.3098 35.0728L38.5598 23.3815L38.5598 46.7642L18.3098 35.0728Z" fill="#8D16EC"/>
<path d="M59.4 59.5358L39.15 71.2272L39.15 47.8445L59.4 59.5358Z" fill="white"/>
<path d="M58.8098 35.0728L38.5598 46.7642L38.5598 23.3815L58.8098 35.0728Z" fill="#7A13CC"/>
<path d="M74.36 52.9879C74.36 54.1719 74.12 55.2439 73.64 56.2039C73.16 57.1479 72.424 57.8999 71.432 58.4599C70.456 59.0039 69.208 59.2759 67.688 59.2759C65.56 59.2759 63.936 58.6999 62.816 57.5479C61.712 56.3799 61.16 54.8439 61.16 52.9399L61.16 41.8999L63.32 41.8999L63.32 53.0119C63.32 54.4039 63.688 55.4839 64.424 56.2519C65.176 57.0199 66.304 57.4039 67.808 57.4039C69.36 57.4039 70.48 56.9959 71.168 56.1799C71.872 55.3479 72.224 54.2839 72.224 52.9879L72.224 41.8999L74.36 41.8999L74.36 52.9879ZM83.7787 41.8999C85.9227 41.8999 87.5387 42.2199 88.6267 42.8599C89.7307 43.4839 90.2827 44.5799 90.2827 46.1479C90.2827 47.1559 90.0027 47.9959 89.4427 48.6679C88.8827 49.3239 88.0747 49.7479 87.0187 49.9399L87.0187 50.0599C87.7387 50.1719 88.3867 50.3799 88.9627 50.6839C89.5547 50.9879 90.0187 51.4199 90.3547 51.9799C90.6907 52.5399 90.8587 53.2679 90.8587 54.1639C90.8587 55.7159 90.3227 56.9159 89.2507 57.7639C88.1947 58.6119 86.7467 59.0359 84.9067 59.0359L78.8827 59.0359L78.8827 41.8999L83.7787 41.8999ZM84.2107 49.1959C85.6827 49.1959 86.6907 48.9639 87.2347 48.4999C87.7787 48.0199 88.0507 47.3159 88.0507 46.3879C88.0507 45.4439 87.7147 44.7719 87.0427 44.3719C86.3867 43.9559 85.3307 43.7479 83.8747 43.7479L81.0427 43.7479L81.0427 49.1959L84.2107 49.1959ZM81.0427 50.9959L81.0427 57.2119L84.4987 57.2119C86.0187 57.2119 87.0747 56.9159 87.6667 56.3239C88.2587 55.7319 88.5547 54.9559 88.5547 53.9959C88.5547 53.0999 88.2427 52.3799 87.6187 51.8359C87.0107 51.2759 85.9147 50.9959 84.3307 50.9959L81.0427 50.9959ZM104.068 59.0359L94.4921 59.0359L94.4921 41.8999L104.068 41.8999L104.068 43.7959L96.6521 43.7959L96.6521 49.1479L103.636 49.1479L103.636 51.0199L96.6521 51.0199L96.6521 57.1399L104.068 57.1399L104.068 59.0359ZM68.888 79.0359L63.248 64.0119L63.152 64.0119C63.2 64.5079 63.24 65.1799 63.272 66.0279C63.304 66.8599 63.32 67.7319 63.32 68.6439L63.32 79.0359L61.328 79.0359L61.328 61.8999L64.52 61.8999L69.8 75.9399L69.896 75.9399L75.272 61.8999L78.44 61.8999L78.44 79.0359L76.304 79.0359L76.304 68.4999C76.304 67.6679 76.32 66.8439 76.352 66.0279C76.4 65.2119 76.44 64.5479 76.472 64.0359L76.376 64.0359L70.664 79.0359L68.888 79.0359ZM96.1334 72.9879C96.1334 74.1719 95.8934 75.2439 95.4134 76.2039C94.9334 77.1479 94.1974 77.8999 93.2054 78.4599C92.2294 79.0039 90.9814 79.2759 89.4614 79.2759C87.3334 79.2759 85.7094 78.6999 84.5894 77.5479C83.4854 76.3799 82.9334 74.8439 82.9334 72.9399L82.9334 61.8999L85.0934 61.8999L85.0934 73.0119C85.0934 74.4039 85.4614 75.4839 86.1974 76.2519C86.9494 77.0199 88.0774 77.4039 89.5814 77.4039C91.1334 77.4039 92.2534 76.9959 92.9414 76.1799C93.6454 75.3479 93.9974 74.2839 93.9974 72.9879L93.9974 61.8999L96.1334 61.8999L96.1334 72.9879ZM110.376 74.4519C110.376 75.9719 109.824 77.1559 108.72 78.0039C107.616 78.8519 106.128 79.2759 104.256 79.2759C103.296 79.2759 102.408 79.2039 101.592 79.0599C100.776 78.9159 100.096 78.7159 99.5521 78.4599L99.5521 76.3959C100.128 76.6519 100.84 76.8839 101.688 77.0919C102.552 77.2999 103.44 77.4039 104.352 77.4039C105.632 77.4039 106.592 77.1559 107.232 76.6599C107.888 76.1639 108.216 75.4919 108.216 74.6439C108.216 74.0839 108.096 73.6119 107.856 73.2279C107.616 72.8439 107.2 72.4919 106.608 72.1719C106.032 71.8359 105.224 71.4839 104.184 71.1159C102.728 70.5879 101.624 69.9399 100.872 69.1719C100.136 68.4039 99.7681 67.3559 99.7681 66.0279C99.7681 65.1159 100 64.3399 100.464 63.6999C100.928 63.0439 101.568 62.5399 102.384 62.1879C103.216 61.8359 104.168 61.6599 105.24 61.6599C106.184 61.6599 107.048 61.7479 107.832 61.9239C108.616 62.0999 109.328 62.3319 109.968 62.6199L109.296 64.4679C108.704 64.2119 108.056 63.9959 107.352 63.8199C106.664 63.6439 105.944 63.5559 105.192 63.5559C104.12 63.5559 103.312 63.7879 102.768 64.2519C102.224 64.6999 101.952 65.2999 101.952 66.0519C101.952 66.6279 102.072 67.1079 102.312 67.4919C102.552 67.8759 102.944 68.2199 103.488 68.5239C104.032 68.8279 104.768 69.1559 105.696 69.5079C106.704 69.8759 107.552 70.2759 108.24 70.7079C108.944 71.1239 109.472 71.6279 109.824 72.2199C110.192 72.8119 110.376 73.5559 110.376 74.4519ZM118.652 79.0359L112.46 79.0359L112.46 77.7879L114.476 77.3319L114.476 63.6279L112.46 63.1479L112.46 61.8999L118.652 61.8999L118.652 63.1479L116.636 63.6279L116.636 77.3319L118.652 77.7879L118.652 79.0359ZM129.305 63.5559C127.465 63.5559 126.017 64.1719 124.961 65.4039C123.905 66.6359 123.377 68.3239 123.377 70.4679C123.377 72.5959 123.865 74.2839 124.841 75.5319C125.833 76.7639 127.313 77.3799 129.281 77.3799C130.033 77.3799 130.745 77.3159 131.417 77.1879C132.089 77.0599 132.745 76.8999 133.385 76.7079L133.385 78.5799C132.745 78.8199 132.081 78.9959 131.393 79.1079C130.721 79.2199 129.913 79.2759 128.969 79.2759C127.225 79.2759 125.769 78.9159 124.601 78.1959C123.433 77.4759 122.553 76.4519 121.961 75.1239C121.385 73.7959 121.097 72.2359 121.097 70.4439C121.097 68.7159 121.409 67.1959 122.033 65.8839C122.673 64.5559 123.609 63.5239 124.841 62.7879C126.073 62.0359 127.569 61.6599 129.329 61.6599C131.137 61.6599 132.713 61.9959 134.057 62.6679L133.193 64.4919C132.665 64.2519 132.073 64.0359 131.417 63.8439C130.777 63.6519 130.073 63.5559 129.305 63.5559Z" fill="white"/>
</svg>
