<svg width="102" height="100" viewBox="0 0 102 100" fill="none" xmlns="http://www.w3.org/2000/svg">
<g clip-path="url(#clip0)">
<path d="M18.0314 83.014C16.3763 81.3589 16.3763 78.3102 18.0314 76.2196L23.1707 71.0802C18.3798 68.6412 13.0662 64.7213 9.32056 58.3624C5.05227 61.5854 1.74216 66.5506 1.74216 74.2161C1.74216 95.3833 21.2544 98.2579 21.5157 98.2579H61.5854C68.554 98.2579 82.4042 93.9025 83.7979 77.4391C83.9721 75.9582 83.7979 74.7387 83.7979 73.5192C82.1429 73.6934 80.7491 73.9548 79.2683 73.9548H33.6237L24.7387 82.8398C23.1707 84.669 20.0348 84.6691 18.0314 83.014Z" fill="#575757" stroke="#29282D" stroke-width="4" stroke-miterlimit="10" stroke-linecap="round"/>
<path d="M78.8328 23.345C77.1777 14.8955 70.3833 1.74219 53.5714 1.74219C36.8467 1.74219 29.7038 14.1115 27.7875 22.2997C18.9895 23.7805 5.57491 30.1394 5.57491 46.1673C5.57491 62.4565 15.6794 69.1638 22.2125 72.1255L53.1359 41.2021H49.216C46.777 41.2021 44.5122 38.9373 44.5122 36.4983C44.5122 34.0593 46.777 31.7945 49.216 31.7945H64.6341C65.2439 31.7945 65.6794 31.7945 66.2892 31.9687C66.899 32.1429 67.3345 32.5784 67.77 32.7526C68.3798 33.3624 68.554 33.5366 68.554 34.2335C69.338 35.453 69.338 36.0627 69.338 36.4983V51.9164C69.338 54.3554 67.0732 56.6202 64.6341 56.6202C62.1951 56.6202 59.9303 54.3554 59.9303 51.9164V47.9965L34.2334 73.7805H73.9547C81.9686 73.7805 97.6481 68.8154 99.216 50.0871C100.871 32.8397 87.7178 25.1742 78.8328 23.345Z" fill="#7A13CC" stroke="#29282D" stroke-width="4" stroke-miterlimit="10" stroke-linecap="round"/>
</g>
<defs>
<clipPath id="clip0">
<rect width="101.045" height="100" fill="white"/>
</clipPath>
</defs>
</svg>
