<svg width="119" height="100" viewBox="0 0 119 100" fill="none" xmlns="http://www.w3.org/2000/svg">
<g clip-path="url(#clip0)">
<path d="M87.6991 28.0531H103.805V75.1327H14.6018V29.2035H25.1327C28.6726 29.2035 31.5044 26.3716 31.5044 22.8318C31.5044 19.292 28.6726 16.4601 25.1327 16.4601H8.14158C4.60176 16.4601 1.7699 19.292 1.7699 22.8318V81.5044C1.7699 83.1858 2.47786 84.7787 3.7168 86.0176C4.95574 87.2566 6.54866 87.9646 8.23007 87.9646H110.885C114.248 87.9646 117.257 84.8672 117.257 81.5929V21.6814C117.257 18.4955 115.044 15.9292 111.77 15.3097H88.2301L87.6991 28.0531Z" fill="#DCDCDC" stroke="black" stroke-width="4" stroke-miterlimit="10"/>
<path d="M84.3363 1.7699H18.1416C16.1947 1.7699 14.6017 3.36282 14.6017 5.30972V71.5929C14.6017 73.5398 16.1947 75.1327 18.1416 75.1327H84.4248C86.3717 75.1327 87.9646 73.5398 87.9646 71.5929V5.30972C87.8761 3.36282 86.2832 1.7699 84.3363 1.7699Z" fill="#575757" stroke="black" stroke-width="4" stroke-miterlimit="10"/>
<path d="M100.265 1.7699H42.8318C40.8849 1.7699 39.292 3.36282 39.292 5.30972V71.5929C39.292 73.5398 40.8849 75.1327 42.8318 75.1327H100.265C102.212 75.1327 103.805 73.5398 103.805 71.5929V5.30972C103.805 3.36282 102.212 1.7699 100.265 1.7699Z" fill="#7A13CC" stroke="black" stroke-width="4" stroke-miterlimit="10"/>
<path d="M48.6726 97.6106C49.3805 98.0531 50.177 98.2301 50.8849 98.2301C51.6814 98.2301 52.3894 98.0531 53.0973 97.6106L74.5133 85.3982C75.9292 84.6018 76.7257 83.1859 76.7257 81.5044C76.7257 79.9115 75.9292 78.4071 74.5133 77.6106L53.0973 65.2212C51.6814 64.4248 50 64.4248 48.5841 65.2212C47.1681 66.0177 46.3717 67.4336 46.3717 69.1151V93.7168C46.4602 95.3097 47.2566 96.8142 48.6726 97.6106Z" fill="white" stroke="black" stroke-width="4" stroke-miterlimit="10"/>
</g>
<defs>
<clipPath id="clip0">
<rect width="118.938" height="100" fill="white"/>
</clipPath>
</defs>
</svg>
