<svg width="1440" height="85" viewBox="0 0 1440 85" fill="none" xmlns="http://www.w3.org/2000/svg">
<g clip-path="url(#clip0)">
<rect width="1440" height="3272" transform="translate(0 -2048)" fill="white"/>
<path d="M0 0L79.151 28.8336C118.77 43.2663 161.852 45.2554 202.633 34.5347L269.888 16.8541C311.85 5.82286 356.012 6.32429 397.712 18.3054L540.17 59.2354C580.898 70.9372 623.691 73.6026 665.557 67.0454L740.816 55.2577C758.903 52.4248 776.705 48.0003 794.014 42.0357L854.378 21.2346C893.768 7.66104 936.977 10.6265 974.143 29.4541L1008.56 46.8913C1046.68 66.1975 1090.82 69.8699 1131.59 57.127L1206.01 33.8704C1241.91 22.6541 1278.87 15.2176 1316.31 11.6819L1440 0V937L1314.32 983.727C1244.41 1009.72 1167.52 1009.92 1097.48 984.282L1076.86 976.737C1034.93 961.391 988.966 961.093 946.839 975.894L921.35 984.85C884.634 997.75 844.294 995.512 809.231 978.63C775.976 962.618 736.919 964.29 705.153 983.084L675.483 1000.64C650.536 1015.4 620.22 1017.98 593.138 1007.64L452.507 953.983C423.586 942.947 391.906 941.389 362.042 949.534L210 991L172.691 999.671C109.653 1014.32 44.1173 988.527 7.97381 934.843L0 923V0Z" fill="#575757"/>
</g>
<defs>
<clipPath id="clip0">
<rect width="1440" height="3272" fill="white" transform="translate(0 -2048)"/>
</clipPath>
</defs>
</svg>
